<svg version="1.1" xmlns="http://www.w3.org/2000/svg" xmlns:xlink="http://www.w3.org/1999/xlink" width="67.53432" height="81.51627" viewBox="0,0,67.53432,81.51627"><defs><linearGradient x1="239.77976" y1="199.23544" x2="247.46878" y2="199.66991" gradientUnits="userSpaceOnUse" id="color-1"><stop offset="0" stop-color="#9966ff"/><stop offset="1" stop-color="#66ebff"/></linearGradient><linearGradient x1="235.09071" y1="177.6202" x2="251.91437" y2="178.57082" gradientUnits="userSpaceOnUse" id="color-2"><stop offset="0" stop-color="#9966ff"/><stop offset="1" stop-color="#66ebff"/></linearGradient><linearGradient x1="216.85324" y1="185.24573" x2="236.14914" y2="186.33604" gradientUnits="userSpaceOnUse" id="color-3"><stop offset="0" stop-color="#9966ff"/><stop offset="1" stop-color="#66ebff"/></linearGradient><linearGradient x1="248.81647" y1="186.95865" x2="273.20939" y2="188.33697" gradientUnits="userSpaceOnUse" id="color-4"><stop offset="0" stop-color="#9966ff"/><stop offset="1" stop-color="#66ebff"/></linearGradient><linearGradient x1="259.50702" y1="181.54796" x2="259.50702" y2="218.12264" gradientUnits="userSpaceOnUse" id="color-5"><stop offset="0" stop-color="#002bff"/><stop offset="1" stop-color="#00ffa1"/></linearGradient><linearGradient x1="259.50702" y1="181.54796" x2="259.50702" y2="218.12264" gradientUnits="userSpaceOnUse" id="color-6"><stop offset="0" stop-color="#002bff"/><stop offset="1" stop-color="#00ffa1"/></linearGradient><linearGradient x1="226.44566" y1="182.8597" x2="226.44566" y2="217.33398" gradientUnits="userSpaceOnUse" id="color-7"><stop offset="0" stop-color="#002bff"/><stop offset="1" stop-color="#00ffa1"/></linearGradient><linearGradient x1="226.44565" y1="182.8597" x2="226.44565" y2="217.33398" gradientUnits="userSpaceOnUse" id="color-8"><stop offset="0" stop-color="#002bff"/><stop offset="1" stop-color="#00ffa1"/></linearGradient><linearGradient x1="271.93669" y1="202.43121" x2="275.62729" y2="202.63975" gradientUnits="userSpaceOnUse" id="color-9"><stop offset="0" stop-color="#9966ff"/><stop offset="1" stop-color="#66ebff"/></linearGradient><linearGradient x1="271.93669" y1="202.43121" x2="275.62729" y2="202.63975" gradientUnits="userSpaceOnUse" id="color-10"><stop offset="0" stop-color="#ff0000"/><stop offset="1" stop-color="#cc00ff"/></linearGradient><linearGradient x1="210.16013" y1="203.67137" x2="213.44067" y2="203.85674" gradientUnits="userSpaceOnUse" id="color-11"><stop offset="0" stop-color="#9966ff"/><stop offset="1" stop-color="#66ebff"/></linearGradient><linearGradient x1="210.16013" y1="203.67137" x2="213.44067" y2="203.85674" gradientUnits="userSpaceOnUse" id="color-12"><stop offset="0" stop-color="#ff0000"/><stop offset="1" stop-color="#cc00ff"/></linearGradient><linearGradient x1="243.6328" y1="214.60997" x2="243.6328" y2="231.7739" gradientUnits="userSpaceOnUse" id="color-13"><stop offset="0" stop-color="#002bff"/><stop offset="1" stop-color="#00ffdc"/></linearGradient></defs><g transform="translate(-209.12575,-165.18694)"><g data-paper-data="{&quot;isPaintingLayer&quot;:true}" fill-rule="nonzero" stroke-linejoin="miter" stroke-miterlimit="10" stroke-dasharray="" stroke-dashoffset="0" style="mix-blend-mode: normal"><path d="M246.18506,180.33922l0.21772,38.19647l-5.33929,0.03043l-0.21772,-38.19647z" fill="#10ffff" stroke="url(#color-1)" stroke-width="2" stroke-linecap="butt"/><path d="M235.08289,178.1435c-0.03038,-5.33054 3.71459,-9.67328 8.36464,-9.69979c4.65004,-0.0265 8.44428,4.27326 8.47467,9.6038c0.03038,5.33054 -3.71459,9.67328 -8.36464,9.69979c-4.65004,0.0265 -8.44428,-4.27326 -8.47467,-9.6038z" fill="#10ffff" stroke="url(#color-2)" stroke-width="2" stroke-linecap="butt"/><path d="M235.52052,182.86438l-19.60662,19.00525l21.17456,-32.15748z" fill="none" stroke="url(#color-3)" stroke-width="2" stroke-linecap="round"/><path d="M249.81829,169.22885l22.38929,36.83791l-21.49529,-24.11043z" fill="none" stroke="url(#color-4)" stroke-width="2" stroke-linecap="round"/><path d="M272.20289,205.24534l-25.39174,12.8773l3.48808,-36.57468z" fill="url(#color-5)" stroke="url(#color-6)" stroke-width="2" stroke-linecap="round"/><path d="M236.34195,182.8597l4.71451,34.47428l-29.22161,-10.51237z" fill="url(#color-7)" stroke="url(#color-8)" stroke-width="2" stroke-linecap="round"/><path d="M273.43443,208.68649c-1.01913,-0.05759 -1.68969,-2.85817 -1.49774,-6.25528c0.19195,-3.39711 1.17373,-6.10433 2.19286,-6.04674c1.01913,0.05759 1.68969,2.85817 1.49774,6.25528c-0.19195,3.39711 -1.17373,6.10433 -2.19286,6.04674z" fill="url(#color-9)" stroke="url(#color-10)" stroke-width="2" stroke-linecap="butt"/><path d="M211.46443,209.71003c-0.90589,-0.05119 -1.48984,-2.75479 -1.30429,-6.03866c0.18555,-3.28387 1.07034,-5.90448 1.97624,-5.85329c0.90589,0.05119 1.48984,2.75479 1.30429,6.03866c-0.18555,3.28387 -1.07034,5.90448 -1.97624,5.85329z" fill="url(#color-11)" stroke="url(#color-12)" stroke-width="2" stroke-linecap="butt"/><path d="M241.75858,231.7739v-17.16395h3.74845v17.16395z" fill="url(#color-13)" stroke="none" stroke-width="0" stroke-linecap="butt"/><path d="M243.83425,235.84731c0,-0.41421 0.33579,-0.75 0.75,-0.75c0.41421,0 0.75,0.33579 0.75,0.75c0,0.41421 -0.33579,0.75 -0.75,0.75c-0.41421,0 -0.75,-0.33579 -0.75,-0.75z" fill="#3bff00" stroke="none" stroke-width="0.5" stroke-linecap="butt"/><path d="M241.30777,240.14232c0,-0.41421 0.33579,-0.75 0.75,-0.75c0.41421,0 0.75,0.33579 0.75,0.75c0,0.41421 -0.33579,0.75 -0.75,0.75c-0.41421,0 -0.75,-0.33579 -0.75,-0.75z" fill="#3bff00" stroke="none" stroke-width="0.5" stroke-linecap="butt"/><path d="M241.56042,235.84731c0,-0.41421 0.33579,-0.75 0.75,-0.75c0.41421,0 0.75,0.33579 0.75,0.75c0,0.41421 -0.33579,0.75 -0.75,0.75c-0.41421,0 -0.75,-0.33579 -0.75,-0.75z" fill="#3bff00" stroke="none" stroke-width="0.5" stroke-linecap="butt"/><path d="M244.33954,245.95321c0,-0.41421 0.33579,-0.75 0.75,-0.75c0.41421,0 0.75,0.33579 0.75,0.75c0,0.41421 -0.33579,0.75 -0.75,0.75c-0.41421,0 -0.75,-0.33579 -0.75,-0.75z" fill="#3bff00" stroke="none" stroke-width="0.5" stroke-linecap="butt"/><path d="M244.33954,241.15291c0,-0.41421 0.33579,-0.75 0.75,-0.75c0.41421,0 0.75,0.33579 0.75,0.75c0,0.41421 -0.33579,0.75 -0.75,0.75c-0.41421,0 -0.75,-0.33579 -0.75,-0.75z" fill="#3bff00" stroke="none" stroke-width="0.5" stroke-linecap="butt"/></g></g></svg>